<svg width="1374" height="114" viewBox="0 0 1374 114" fill="none" xmlns="http://www.w3.org/2000/svg">
<path opacity="0.5" d="M1318 1L1318.01 56.9449L1339.43 5.26273L1318.03 56.9535L1357.6 17.402L1318.05 56.9688L1369.74 35.5696L1318.06 56.9892L1374 57L1318.06 57.0108L1369.74 78.4304L1318.05 57.0312L1357.6 96.5979L1318.03 57.0465L1339.43 108.737L1318.01 57.0551L1318 113L1317.99 57.0551L1296.57 108.737L1317.97 57.0465L1278.4 96.5979L1317.95 57.0312L1266.26 78.4304L1317.94 57.0108L1262 57L1317.94 56.9892L1266.26 35.5696L1317.95 56.9688L1278.4 17.402L1317.97 56.9535L1296.57 5.26273L1317.99 56.9449L1318 1Z" stroke="#A1A6B4"/>
<path opacity="0.5" d="M1097.28 72.88C1097.28 33.343 1086.86 1.29221 1074.02 1.29221C1061.17 1.29221 1050.75 33.343 1050.75 72.88C1050.75 95.0376 1055.16 113 1060.6 113C1066.04 113 1070.45 95.0376 1070.45 72.88C1070.45 33.343 1060.03 1.29221 1047.19 1.29221C1034.34 1.29221 1023.93 33.343 1023.93 72.88C1023.93 95.0376 1028.33 113 1033.77 113C1039.21 113 1043.62 95.0376 1043.62 72.88C1043.62 33.343 1033.14 1.29221 1020.22 1.29221C1007.29 1.29221 996.812 33.343 996.812 72.88C996.812 95.0376 1001.22 113 1006.66 113C1012.1 113 1016.5 95.0376 1016.5 72.88C1016.5 33.343 1006.09 1.29221 993.244 1.29221C980.398 1.29221 969.984 33.343 969.984 72.88C969.984 95.0376 974.392 113 979.83 113C985.268 113 989.677 95.0376 989.677 72.88C989.677 33.343 979.262 1.29221 966.415 1.29221C953.569 1.29221 943.155 33.343 943.155 72.88C943.155 95.0376 947.564 113 953.001 113C958.439 113 962.848 95.0376 962.848 72.88C962.848 33.343 952.433 1.29221 939.587 1.29221C926.741 1.29221 916.326 33.343 916.326 72.88C916.326 95.0376 920.735 113 926.173 113C931.611 113 936.019 95.0376 936.019 72.88C936.019 33.343 925.541 1.2922 912.616 1.2922C899.691 1.2922 889.212 33.343 889.212 72.88M1232 72.88C1232 33.343 1221.59 1.29221 1208.74 1.29221C1195.89 1.29221 1185.48 33.343 1185.48 72.88C1185.48 95.0376 1189.89 113 1195.32 113C1200.76 113 1205.17 95.0376 1205.17 72.88C1205.17 33.343 1194.76 1.29221 1181.91 1.29221C1169.06 1.29221 1158.65 33.343 1158.65 72.88C1158.65 95.0376 1163.06 113 1168.5 113C1173.93 113 1178.34 95.0376 1178.34 72.88C1178.34 33.343 1167.86 1.29221 1154.94 1.29221C1142.01 1.29221 1131.54 33.343 1131.54 72.88C1131.54 95.0376 1135.94 113 1141.38 113C1146.82 113 1151.23 95.0376 1151.23 72.88C1151.23 33.343 1140.81 1.29221 1127.97 1.29221C1115.12 1.29221 1104.71 33.343 1104.71 72.88C1104.71 95.0376 1109.12 113 1114.55 113C1119.99 113 1124.4 95.0376 1124.4 72.88C1124.4 33.343 1113.99 1.29221 1101.14 1.29221C1088.29 1.29221 1077.88 33.343 1077.88 72.88C1077.88 95.0376 1082.29 113 1087.72 113C1093.16 113 1097.57 95.0376 1097.57 72.88C1097.57 33.343 1087.16 1.29221 1074.31 1.29221C1061.46 1.29221 1051.05 33.343 1051.05 72.88C1051.05 95.0376 1055.46 113 1060.9 113C1066.33 113 1070.74 95.0376 1070.74 72.88C1070.74 33.343 1060.27 1.2922 1047.34 1.2922C1034.41 1.2922 1023.94 33.343 1023.94 72.88M801.064 72.5878C801.064 33.0508 790.65 1.00001 777.803 1.00001C764.957 1.00001 754.542 33.0508 754.542 72.5878C754.542 94.7454 758.951 112.708 764.389 112.708C769.827 112.708 774.236 94.7454 774.236 72.5878C774.236 33.0508 763.821 1.00001 750.975 1.00001C738.128 1.00001 727.713 33.0507 727.713 72.5878C727.713 94.7454 732.122 112.708 737.56 112.708C742.999 112.708 747.407 94.7454 747.407 72.5878C747.407 33.0508 736.929 1.00001 724.003 1C711.078 1 700.6 33.0507 700.6 72.5878C700.6 94.7454 705.008 112.708 710.447 112.708C715.885 112.708 720.293 94.7454 720.293 72.5878C720.293 33.0507 709.879 1 697.032 1C684.185 1 673.772 33.0507 673.772 72.5878C673.772 94.7454 678.179 112.708 683.618 112.708C689.056 112.708 693.465 94.7454 693.465 72.5878C693.465 33.0507 683.05 1 670.203 1C657.357 1 646.943 33.0507 646.943 72.5878C646.943 94.7454 651.351 112.708 656.789 112.708C662.227 112.708 666.636 94.7454 666.636 72.5878C666.636 33.0507 656.221 1 643.375 1C630.529 1 620.114 33.0507 620.114 72.5878C620.114 94.7454 624.523 112.708 629.961 112.708C635.398 112.708 639.807 94.7454 639.807 72.5878C639.807 33.0507 629.329 1 616.404 1C603.479 0.999999 593 33.0507 593 72.5878M935.788 72.5878C935.788 33.0508 925.374 1.00001 912.527 1.00001C899.68 1.00001 889.266 33.0508 889.266 72.5878C889.266 94.7454 893.674 112.708 899.113 112.708C904.551 112.708 908.959 94.7454 908.959 72.5878C908.959 33.0508 898.545 1.00001 885.698 1.00001C872.852 1.00001 862.437 33.0507 862.437 72.5878C862.437 94.7454 866.846 112.708 872.284 112.708C877.722 112.708 882.131 94.7454 882.131 72.5878C882.131 33.0508 871.652 1.00001 858.727 1C845.802 1 835.323 33.0507 835.323 72.5878C835.323 94.7454 839.732 112.708 845.17 112.708C850.608 112.708 855.016 94.7454 855.016 72.5878C855.016 33.0507 844.602 1 831.756 1C818.909 1 808.495 33.0507 808.495 72.5878C808.495 94.7454 812.903 112.708 818.341 112.708C823.78 112.708 828.188 94.7454 828.188 72.5878C828.188 33.0507 817.774 1 804.927 1C792.08 1 781.666 33.0507 781.666 72.5878C781.666 94.7454 786.075 112.708 791.512 112.708C796.951 112.708 801.359 94.7454 801.359 72.5878C801.359 33.0507 790.945 1 778.099 1C765.252 1 754.837 33.0507 754.837 72.5878C754.837 94.7454 759.246 112.708 764.684 112.708C770.122 112.708 774.531 94.7454 774.531 72.5878C774.531 33.0507 764.053 1 751.128 1C738.202 0.999999 727.724 33.0507 727.724 72.5878" stroke="#A1A6B4" stroke-linecap="round"/>
<path opacity="0.5" d="M505.276 72.88C505.276 33.343 494.862 1.29221 482.015 1.29221C469.169 1.29221 458.754 33.343 458.754 72.88C458.754 95.0376 463.163 113 468.601 113C474.039 113 478.448 95.0376 478.448 72.88C478.448 33.343 468.034 1.29221 455.187 1.29221C442.34 1.29221 431.926 33.343 431.926 72.88C431.926 95.0376 436.334 113 441.773 113C447.211 113 451.619 95.0376 451.619 72.88C451.619 33.343 441.141 1.29221 428.216 1.29221C415.29 1.29221 404.812 33.343 404.812 72.88C404.812 95.0376 409.22 113 414.659 113C420.097 113 424.505 95.0376 424.505 72.88C424.505 33.343 414.091 1.29221 401.244 1.29221C388.398 1.29221 377.984 33.343 377.984 72.88C377.984 95.0376 382.392 113 387.83 113C393.268 113 397.677 95.0376 397.677 72.88C397.677 33.343 387.262 1.29221 374.415 1.29221C361.569 1.29221 351.155 33.343 351.155 72.88C351.155 95.0376 355.564 113 361.001 113C366.439 113 370.848 95.0376 370.848 72.88C370.848 33.343 360.433 1.29221 347.587 1.29221C334.741 1.29221 324.326 33.343 324.326 72.88C324.326 95.0376 328.735 113 334.173 113C339.611 113 344.019 95.0376 344.019 72.88C344.019 33.343 333.541 1.2922 320.616 1.2922C307.691 1.2922 297.212 33.343 297.212 72.88M640 72.88C640 33.343 629.586 1.29221 616.739 1.29221C603.892 1.29221 593.478 33.343 593.478 72.88C593.478 95.0376 597.887 113 603.325 113C608.763 113 613.171 95.0376 613.171 72.88C613.171 33.343 602.757 1.29221 589.911 1.29221C577.064 1.29221 566.649 33.343 566.649 72.88C566.649 95.0376 571.058 113 576.496 113C581.934 113 586.343 95.0376 586.343 72.88C586.343 33.343 575.865 1.29221 562.939 1.29221C550.014 1.29221 539.535 33.343 539.535 72.88C539.535 95.0376 543.944 113 549.382 113C554.821 113 559.228 95.0376 559.228 72.88C559.228 33.343 548.815 1.29221 535.968 1.29221C523.121 1.29221 512.707 33.343 512.707 72.88C512.707 95.0376 517.115 113 522.553 113C527.992 113 532.4 95.0376 532.4 72.88C532.4 33.343 521.986 1.29221 509.139 1.29221C496.292 1.29221 485.878 33.343 485.878 72.88C485.878 95.0376 490.287 113 495.725 113C501.163 113 505.572 95.0376 505.572 72.88C505.572 33.343 495.157 1.29221 482.311 1.29221C469.464 1.29221 459.05 33.343 459.05 72.88C459.05 95.0376 463.458 113 468.897 113C474.334 113 478.743 95.0376 478.743 72.88C478.743 33.343 468.265 1.2922 455.34 1.2922C442.414 1.2922 431.936 33.343 431.936 72.88M209.064 72.5878C209.064 33.0508 198.65 1.00001 185.803 1.00001C172.957 1.00001 162.542 33.0508 162.542 72.5878C162.542 94.7454 166.951 112.708 172.389 112.708C177.827 112.708 182.236 94.7454 182.236 72.5878C182.236 33.0508 171.821 1.00001 158.975 1.00001C146.128 1.00001 135.713 33.0507 135.713 72.5878C135.713 94.7454 140.122 112.708 145.56 112.708C150.999 112.708 155.407 94.7454 155.407 72.5878C155.407 33.0508 144.929 1.00001 132.003 1C119.078 1 108.6 33.0507 108.6 72.5878C108.6 94.7454 113.008 112.708 118.447 112.708C123.885 112.708 128.293 94.7454 128.293 72.5878C128.293 33.0507 117.879 1 105.032 1C92.1854 1 81.7715 33.0507 81.7715 72.5878C81.7715 94.7454 86.1794 112.708 91.6177 112.708C97.056 112.708 101.465 94.7454 101.465 72.5878C101.465 33.0507 91.05 1 78.2033 1C65.3566 1 54.9427 33.0507 54.9427 72.5878C54.9427 94.7454 59.3514 112.708 64.7889 112.708C70.2272 112.708 74.6359 94.7454 74.6359 72.5878C74.6359 33.0507 64.2212 1 51.3753 1C38.5286 1 28.1139 33.0507 28.1139 72.5878C28.1139 94.7454 32.5226 112.708 37.9609 112.708C43.3984 112.708 47.8071 94.7454 47.8071 72.5878C47.8071 33.0507 37.3293 1 24.404 1C11.4786 0.999999 1 33.0507 1 72.5878M343.788 72.5878C343.788 33.0508 333.374 1.00001 320.527 1.00001C307.68 1.00001 297.266 33.0508 297.266 72.5878C297.266 94.7454 301.674 112.708 307.113 112.708C312.551 112.708 316.959 94.7454 316.959 72.5878C316.959 33.0508 306.545 1.00001 293.698 1.00001C280.852 1.00001 270.437 33.0507 270.437 72.5878C270.437 94.7454 274.846 112.708 280.284 112.708C285.722 112.708 290.131 94.7454 290.131 72.5878C290.131 33.0508 279.652 1.00001 266.727 1C253.802 1 243.323 33.0507 243.323 72.5878C243.323 94.7454 247.732 112.708 253.17 112.708C258.608 112.708 263.016 94.7454 263.016 72.5878C263.016 33.0507 252.602 1 239.756 1C226.909 1 216.495 33.0507 216.495 72.5878C216.495 94.7454 220.903 112.708 226.341 112.708C231.78 112.708 236.188 94.7454 236.188 72.5878C236.188 33.0507 225.774 1 212.927 1C200.08 1 189.666 33.0507 189.666 72.5878C189.666 94.7454 194.075 112.708 199.512 112.708C204.951 112.708 209.359 94.7454 209.359 72.5878C209.359 33.0507 198.945 1 186.099 1C173.252 1 162.837 33.0507 162.837 72.5878C162.837 94.7454 167.246 112.708 172.684 112.708C178.122 112.708 182.531 94.7454 182.531 72.5878C182.531 33.0507 172.053 1 159.128 1C146.202 0.999999 135.724 33.0507 135.724 72.5878" stroke="#A1A6B4" stroke-linecap="round"/>
</svg>
