<svg width="16" height="12" viewBox="0 0 16 12" fill="none" xmlns="http://www.w3.org/2000/svg">
<g clip-path="url(#clip0_15402_2957)">
<path fill-rule="evenodd" clip-rule="evenodd" d="M0 0H22.8V0.923438H0V0ZM0 1.84688H22.8V2.77031H0V1.84688ZM0 3.69141H22.8V4.61719H0V3.69141ZM0 5.53828H22.8V6.46172H0V5.53828ZM0 7.38516H22.8V8.30859H0V7.38516ZM0 9.22969H22.8V10.1531H0V9.22969ZM0 11.0766H22.8V12H0V11.0766Z" fill="#BD3D44"/>
<path fill-rule="evenodd" clip-rule="evenodd" d="M0 0.923439H22.8V1.84688H0V0.923439ZM0 2.77031H22.8V3.69141H0V2.77031ZM0 4.61485H22.8V5.53828H0V4.61485ZM0 6.46172H22.8V7.38516H0V6.46172ZM0 8.3086H22.8V9.23203H0V8.3086ZM0 10.1531H22.8V11.0766H0V10.1531Z" fill="white"/>
<path fill-rule="evenodd" clip-rule="evenodd" d="M0 0H9.11953V6.46172H0V0Z" fill="#192F5D"/>
<path fill-rule="evenodd" clip-rule="evenodd" d="M0.759277 0.276566L0.843652 0.532034H1.11084L0.895215 0.689065L0.977246 0.946878L0.759277 0.787503L0.543652 0.944534L0.625684 0.689065L0.407715 0.532034H0.67959L0.759277 0.276566ZM2.28037 0.276566L2.3624 0.532034H2.63193L2.41396 0.689065L2.496 0.946878L2.28037 0.787503L2.0624 0.944534L2.14443 0.689065L1.92881 0.532034H2.196L2.28037 0.276566ZM3.79912 0.276566L3.8835 0.532034H4.14834L3.93272 0.689065L4.01475 0.946878L3.79678 0.787503L3.58115 0.944534L3.66318 0.689065L3.44522 0.532034H3.71475L3.79912 0.276566ZM5.32022 0.276566L5.40225 0.532034H5.67178L5.45381 0.689065L5.53818 0.946878L5.32022 0.787503L5.10225 0.944534L5.18662 0.689065L4.96865 0.532034H5.23584L5.32022 0.276566ZM6.83897 0.276566L6.92334 0.532034H7.19053L6.9749 0.689065L7.05693 0.946878L6.83897 0.787503L6.62334 0.944534L6.70537 0.689065L6.48975 0.532034H6.75693L6.83897 0.276566ZM8.36006 0.276566L8.44209 0.532034H8.71162L8.49365 0.689065L8.57803 0.946878L8.36006 0.787503L8.14209 0.944534L8.22647 0.689065L8.0085 0.532034H8.27803L8.36006 0.276566ZM1.521 0.92344L1.60303 1.17891H1.87256L1.65459 1.33594L1.73428 1.59141L1.52334 1.43438L1.30537 1.59141L1.38271 1.33594L1.17178 1.17891H1.43896L1.521 0.92344ZM3.03975 0.92344L3.12412 1.17891H3.39131L3.17334 1.33594L3.25771 1.59141L3.03975 1.43438L2.82178 1.59141L2.90615 1.33594L2.68818 1.17891H2.95772L3.03975 0.92344ZM4.56084 0.92344L4.64287 1.17891H4.9124L4.69443 1.33594L4.77647 1.59141L4.56084 1.43438L4.34287 1.59141L4.4249 1.33594L4.20928 1.17891H4.47647L4.56084 0.92344ZM6.07959 0.92344L6.16397 1.17891H6.43115L6.21318 1.33594L6.29756 1.59141L6.07959 1.43438L5.86397 1.59141L5.946 1.33594L5.72803 1.17891H5.9999L6.07959 0.92344ZM7.60068 0.92344L7.68272 1.17891H7.95225L7.73428 1.33594L7.81631 1.59141L7.60068 1.43438L7.38272 1.59141L7.46475 1.33594L7.24912 1.17891H7.51631L7.60068 0.92344ZM0.759277 1.56797L0.843652 1.82813H1.11084L0.895215 1.98516L0.977246 2.24063L0.759277 2.08125L0.543652 2.24063L0.625684 1.98281L0.407715 1.82578H0.67959L0.759277 1.56797ZM2.28037 1.56797L2.3624 1.82578H2.63193L2.41396 1.98281L2.496 2.23828L2.28037 2.07891L2.0624 2.23828L2.14443 1.98047L1.92881 1.82344H2.196L2.28037 1.56797ZM3.79912 1.56797L3.8835 1.82578H4.14834L3.93272 1.98281L4.01475 2.23828L3.79678 2.07891L3.58115 2.23828L3.66318 1.98047L3.44522 1.82344H3.71475L3.79912 1.56797ZM5.32022 1.56797L5.40225 1.82578H5.67178L5.45381 1.98281L5.53818 2.23828L5.32022 2.07891L5.10225 2.23828L5.18662 1.98047L4.96865 1.82344H5.23584L5.32022 1.56797ZM6.83897 1.56797L6.92334 1.82578H7.19053L6.9749 1.98281L7.05693 2.23828L6.83897 2.07891L6.62334 2.23828L6.70537 1.98047L6.48975 1.82344H6.75693L6.83897 1.56797ZM8.36006 1.56797L8.44209 1.82578H8.71162L8.49365 1.98281L8.57803 2.23828L8.36006 2.07891L8.14209 2.23828L8.22647 1.98047L8.0085 1.82344H8.27803L8.36006 1.56797ZM1.521 2.21485L1.60303 2.47031H1.87256L1.65459 2.62735L1.73662 2.88516L1.521 2.72578L1.30303 2.88281L1.38506 2.62735L1.16943 2.47031H1.43662L1.521 2.21485ZM3.03975 2.21485L3.12412 2.47031H3.39131L3.17334 2.62735L3.25771 2.88516L3.03975 2.72578L2.82178 2.88281L2.90615 2.62735L2.68818 2.47031H2.95772L3.03975 2.21485ZM4.56084 2.21485L4.64287 2.47031H4.9124L4.69443 2.62735L4.77647 2.88516L4.56084 2.72578L4.34287 2.88281L4.4249 2.62735L4.20928 2.47031H4.47647L4.56084 2.21485ZM6.07959 2.21485L6.16397 2.47031H6.43115L6.21553 2.62735L6.29756 2.88516L6.07959 2.72578L5.86397 2.88281L5.946 2.62735L5.72803 2.47031H5.9999L6.07959 2.21485ZM7.60068 2.21485L7.68272 2.47031H7.95225L7.73428 2.62735L7.81631 2.88516L7.60068 2.72578L7.38272 2.88281L7.46475 2.62735L7.24912 2.47031H7.51631L7.60068 2.21485ZM0.759277 2.86172L0.843652 3.11719H1.11084L0.895215 3.27422L0.977246 3.53203L0.759277 3.37266L0.543652 3.52969L0.625684 3.27422L0.407715 3.11719H0.67959L0.759277 2.86172ZM2.28037 2.86172L2.3624 3.11719H2.63193L2.41396 3.27422L2.496 3.52969L2.28037 3.37266L2.0624 3.52969L2.14443 3.27422L1.92881 3.11719H2.196L2.28037 2.86172ZM3.79912 2.86172L3.8835 3.11719H4.14834L3.93272 3.27422L4.01475 3.53203L3.79678 3.37266L3.58115 3.52969L3.66318 3.27422L3.44522 3.11719H3.71475L3.79912 2.86172ZM5.32022 2.86172L5.40225 3.11719H5.67178L5.45381 3.27422L5.53818 3.53203L5.32022 3.37266L5.10225 3.52969L5.18662 3.27422L4.96865 3.11719H5.23584L5.32022 2.86172ZM6.83897 2.86172L6.92334 3.11719H7.19053L6.9749 3.27422L7.05693 3.53203L6.83897 3.37266L6.62334 3.52969L6.70537 3.27422L6.48975 3.11719H6.75693L6.83897 2.86172ZM8.36006 2.86172L8.44209 3.11719H8.71162L8.49365 3.27422L8.57803 3.53203L8.36006 3.37266L8.14209 3.52969L8.22647 3.27422L8.0085 3.11719H8.27803L8.36006 2.86172ZM1.521 3.50859L1.60303 3.76406H1.87256L1.65459 3.92109L1.73662 4.17656L1.521 4.01719L1.30303 4.17656L1.38506 3.91875L1.16943 3.76172H1.43662L1.521 3.50859ZM3.03975 3.50859L3.12412 3.76406H3.39131L3.17334 3.92109L3.25771 4.17656L3.03975 4.01719L2.82178 4.17656L2.90615 3.91875L2.68818 3.76172H2.95772L3.03975 3.50859ZM4.56084 3.50859L4.64287 3.76406H4.9124L4.69443 3.92109L4.77647 4.17656L4.56084 4.01719L4.34287 4.17656L4.4249 3.91875L4.20928 3.76172H4.47647L4.56084 3.50859ZM6.07959 3.50859L6.16397 3.76406H6.43115L6.21553 3.92109L6.29756 4.17656L6.07959 4.01719L5.86397 4.17656L5.946 3.91875L5.72803 3.76172H5.9999L6.07959 3.50859ZM7.60068 3.50859L7.68272 3.76406H7.95225L7.73428 3.92109L7.81631 4.17656L7.60068 4.01719L7.38272 4.17656L7.46475 3.91875L7.24912 3.76172H7.51631L7.60068 3.50859ZM0.759277 4.15313L0.843652 4.41094H1.11084L0.895215 4.56797L0.977246 4.82109L0.759277 4.66406L0.543652 4.82109L0.625684 4.56563L0.407715 4.40859H0.67959L0.759277 4.15313ZM2.28037 4.15313L2.3624 4.41094H2.63193L2.41396 4.56797L2.49834 4.82109L2.28037 4.66406L2.0624 4.82109L2.14678 4.56563L1.92881 4.40859H2.196L2.28037 4.15313ZM3.79912 4.15313L3.8835 4.41094H4.14834L3.93272 4.56797L4.01475 4.82109L3.79678 4.66406L3.58115 4.82109L3.66318 4.56563L3.44522 4.40859H3.71475L3.79912 4.15313ZM5.32022 4.15313L5.40225 4.41094H5.67178L5.45381 4.56797L5.53818 4.82109L5.32022 4.66406L5.10225 4.82109L5.18662 4.56563L4.96865 4.40859H5.23584L5.32022 4.15313ZM6.83897 4.15313L6.92334 4.41094H7.19053L6.9749 4.56797L7.05693 4.82109L6.83897 4.66406L6.62334 4.82109L6.70537 4.56563L6.48975 4.40859H6.75693L6.83897 4.15313ZM8.36006 4.15313L8.44209 4.41094H8.71162L8.49365 4.56797L8.57803 4.82109L8.36006 4.66406L8.14209 4.82109L8.22647 4.56563L8.0085 4.40859H8.27803L8.36006 4.15313ZM1.521 4.8L1.60303 5.05547H1.87256L1.65459 5.2125L1.73662 5.47031L1.521 5.31094L1.30303 5.46797L1.38506 5.2125L1.16943 5.05547H1.43662L1.521 4.8ZM3.03975 4.8L3.12412 5.05547H3.39131L3.17334 5.2125L3.25771 5.47031L3.03975 5.31094L2.82178 5.46797L2.90615 5.2125L2.68818 5.05547H2.95772L3.03975 4.8ZM4.56084 4.8L4.64287 5.05547H4.9124L4.69443 5.2125L4.77647 5.47031L4.56084 5.31094L4.34287 5.46797L4.4249 5.2125L4.20928 5.05547H4.47647L4.56084 4.8ZM6.07959 4.8L6.16397 5.05547H6.43115L6.21553 5.2125L6.29756 5.47031L6.07959 5.31094L5.86397 5.46797L5.946 5.2125L5.72803 5.05547H5.9999L6.07959 4.8ZM7.60068 4.8L7.68272 5.05547H7.95225L7.73428 5.2125L7.81631 5.47031L7.60068 5.31094L7.38272 5.46797L7.46475 5.2125L7.24912 5.05547H7.51631L7.60068 4.8ZM0.759277 5.44688L0.843652 5.70234H1.11084L0.895215 5.85938L0.977246 6.11484L0.759277 5.95781L0.543652 6.11484L0.625684 5.85703L0.407715 5.7H0.67959L0.759277 5.44688ZM2.28037 5.44688L2.3624 5.70234H2.63193L2.41396 5.85938L2.49834 6.11484L2.28037 5.95781L2.0624 6.11484L2.14678 5.85703L1.92881 5.7H2.196L2.28037 5.44688ZM3.79912 5.44688L3.8835 5.70234H4.14834L3.9374 5.85938L4.01943 6.11484L3.80147 5.95781L3.58584 6.11484L3.66787 5.85703L3.4499 5.7H3.71943L3.79912 5.44688ZM5.32022 5.44688L5.40225 5.70234H5.67178L5.45381 5.85938L5.53818 6.11484L5.32022 5.95781L5.10225 6.11484L5.18662 5.85703L4.96865 5.7H5.23584L5.32022 5.44688ZM6.83897 5.44688L6.92334 5.70234H7.19053L6.9749 5.85938L7.05693 6.11484L6.83897 5.95781L6.62334 6.11484L6.70537 5.85703L6.48975 5.7H6.75693L6.83897 5.44688ZM8.36006 5.44688L8.44209 5.70234H8.71162L8.49365 5.85938L8.57803 6.11484L8.36006 5.95781L8.14209 6.11484L8.22647 5.85703L8.0085 5.7H8.27803L8.36006 5.44688Z" fill="white"/>
</g>
<defs>
<clipPath id="clip0_15402_2957">
<rect width="16" height="12" fill="white"/>
</clipPath>
</defs>
</svg>
